<svg width="272" height="180" viewBox="0 0 272 180" fill="none" xmlns="http://www.w3.org/2000/svg">
<rect width="272" height="180" fill="white" fill-opacity="0.1"/>
<rect width="272" height="180" fill="url(#paint0_linear_25_4)" fill-opacity="0.2"/>
<rect width="272" height="180" fill="url(#paint1_linear_25_4)" fill-opacity="0.2"/>
<path d="M63.4852 98L61.2192 82.6H63.5952L65.4432 96.394H65.7952L68.1712 82.6H72.3292L74.7052 96.394H75.0572L76.8832 82.6H79.2592L76.9932 98H72.8352L70.4152 84.008H70.0632L67.6652 98H63.4852ZM81.607 98V82.6H83.983V89.2H90.451V82.6H92.827V98H90.451V91.356H83.983V98H81.607ZM94.9005 98L99.3005 82.6H103.48L107.858 98H105.416L104.404 94.37H98.3765L97.3645 98H94.9005ZM98.9705 92.17H103.81L101.566 84.074H101.214L98.9705 92.17ZM112.093 98V84.756H107.363V82.6H119.199V84.756H114.469V98H112.093ZM121.441 88.54V87.242H122.189C122.79 87.242 123.091 86.9413 123.091 86.34V85.636H122.761C122.248 85.636 121.822 85.482 121.485 85.174C121.148 84.866 120.979 84.4773 120.979 84.008C120.979 83.4947 121.148 83.084 121.485 82.776C121.822 82.4533 122.248 82.292 122.761 82.292C123.274 82.292 123.692 82.4607 124.015 82.798C124.352 83.1207 124.521 83.546 124.521 84.074V86.362C124.521 87.814 123.795 88.54 122.343 88.54H121.441ZM132.605 98.308C131.446 98.308 130.419 98.1027 129.525 97.692C128.63 97.2813 127.926 96.68 127.413 95.888C126.914 95.0813 126.665 94.106 126.665 92.962V92.412H129.019V92.962C129.019 94.0473 129.341 94.8613 129.987 95.404C130.647 95.9467 131.519 96.218 132.605 96.218C133.705 96.218 134.533 95.9907 135.091 95.536C135.648 95.0667 135.927 94.4653 135.927 93.732C135.927 93.248 135.795 92.852 135.531 92.544C135.267 92.236 134.893 91.994 134.409 91.818C133.925 91.6273 133.345 91.4513 132.671 91.29L131.857 91.092C130.874 90.8573 130.016 90.5713 129.283 90.234C128.564 89.882 128.007 89.42 127.611 88.848C127.215 88.276 127.017 87.5427 127.017 86.648C127.017 85.7387 127.237 84.9613 127.677 84.316C128.131 83.6707 128.755 83.172 129.547 82.82C130.339 82.468 131.27 82.292 132.341 82.292C133.411 82.292 134.365 82.4753 135.201 82.842C136.051 83.2087 136.719 83.7513 137.203 84.47C137.687 85.1887 137.929 86.0907 137.929 87.176V87.968H135.575V87.176C135.575 86.516 135.435 85.9807 135.157 85.57C134.893 85.1593 134.519 84.8587 134.035 84.668C133.551 84.4773 132.986 84.382 132.341 84.382C131.402 84.382 130.669 84.58 130.141 84.976C129.627 85.3573 129.371 85.8927 129.371 86.582C129.371 87.0513 129.481 87.44 129.701 87.748C129.935 88.0413 130.273 88.2833 130.713 88.474C131.153 88.6647 131.703 88.8333 132.363 88.98L133.177 89.178C134.174 89.398 135.054 89.684 135.817 90.036C136.579 90.3733 137.181 90.8353 137.621 91.422C138.061 92.0087 138.281 92.764 138.281 93.688C138.281 94.612 138.046 95.4187 137.577 96.108C137.122 96.7973 136.469 97.34 135.619 97.736C134.768 98.1173 133.763 98.308 132.605 98.308ZM146.382 98V82.6H150.958L155.138 96.416H155.49V82.6H157.844V98H153.268L149.088 84.162H148.736V98H146.382ZM161.056 98V82.6H170.758V84.756H163.432V89.178H170.142V91.334H163.432V95.844H170.868V98H161.056ZM172.333 98L177.063 90.234L172.399 82.6H175.127L178.603 88.54H178.955L182.453 82.6H185.181L180.517 90.234L185.247 98H182.497L178.955 91.928H178.603L175.061 98H172.333ZM191.113 98V84.756H186.383V82.6H198.219V84.756H193.489V98H191.113ZM203.673 93.402V92.478C203.673 91.774 203.805 91.202 204.069 90.762C204.347 90.322 204.817 89.948 205.477 89.64L205.961 89.42C206.665 89.112 207.215 88.76 207.611 88.364C208.007 87.968 208.205 87.418 208.205 86.714C208.205 86.2007 208.073 85.768 207.809 85.416C207.545 85.064 207.185 84.7927 206.731 84.602C206.276 84.4113 205.755 84.316 205.169 84.316C204.582 84.316 204.039 84.4187 203.541 84.624C203.057 84.8147 202.668 85.1153 202.375 85.526C202.081 85.9367 201.935 86.45 201.935 87.066V87.682H199.603V87.066C199.603 86.0687 199.845 85.2107 200.329 84.492C200.827 83.7733 201.495 83.2307 202.331 82.864C203.167 82.4827 204.113 82.292 205.169 82.292C206.21 82.292 207.134 82.4827 207.941 82.864C208.747 83.2453 209.378 83.766 209.833 84.426C210.302 85.086 210.537 85.8487 210.537 86.714C210.537 87.5647 210.375 88.276 210.053 88.848C209.745 89.4053 209.341 89.86 208.843 90.212C208.344 90.564 207.816 90.8647 207.259 91.114L206.775 91.334C206.511 91.4513 206.32 91.598 206.203 91.774C206.1 91.95 206.049 92.214 206.049 92.566V93.402H203.673ZM204.905 98.308C204.406 98.308 203.981 98.1393 203.629 97.802C203.291 97.4647 203.123 97.032 203.123 96.504C203.123 95.976 203.291 95.5507 203.629 95.228C203.981 94.8907 204.406 94.722 204.905 94.722C205.433 94.722 205.865 94.8907 206.203 95.228C206.54 95.5507 206.709 95.976 206.709 96.504C206.709 97.032 206.54 97.4647 206.203 97.802C205.865 98.1393 205.433 98.308 204.905 98.308Z" fill="#FFE11B"/>
<defs>
<linearGradient id="paint0_linear_25_4" x1="272" y1="0" x2="3.43603e-06" y2="180" gradientUnits="userSpaceOnUse">
<stop stop-opacity="0"/>
<stop offset="1"/>
</linearGradient>
<linearGradient id="paint1_linear_25_4" x1="152" y1="43.5" x2="272" y2="180" gradientUnits="userSpaceOnUse">
<stop stop-color="#FFE11B" stop-opacity="0"/>
<stop offset="1" stop-color="#FFE11B" stop-opacity="0.3"/>
</linearGradient>
</defs>
</svg>
