<svg width="272" height="180" viewBox="0 0 272 180" fill="none" xmlns="http://www.w3.org/2000/svg">
<rect width="272" height="180" fill="white" fill-opacity="0.1"/>
<path d="M123.288 93.749C122.214 93.749 121.31 93.3963 120.574 92.691C119.868 91.9856 119.516 91.081 119.516 89.977C119.516 88.873 119.868 87.9836 120.574 87.309C121.31 86.6036 122.214 86.251 123.288 86.251C124.361 86.251 125.25 86.6036 125.956 87.309C126.692 88.0143 127.06 88.9036 127.06 89.977C127.06 91.081 126.692 91.9856 125.956 92.691C125.25 93.3963 124.361 93.749 123.288 93.749Z" fill="#FFE11B"/>
<path d="M136.001 93.749C134.927 93.749 134.023 93.3963 133.287 92.691C132.581 91.9856 132.229 91.081 132.229 89.977C132.229 88.873 132.581 87.9836 133.287 87.309C134.023 86.6036 134.927 86.251 136.001 86.251C137.074 86.251 137.963 86.6036 138.669 87.309C139.405 88.0143 139.773 88.9036 139.773 89.977C139.773 91.081 139.405 91.9856 138.669 92.691C137.963 93.3963 137.074 93.749 136.001 93.749Z" fill="#FFE11B"/>
<path d="M148.713 93.749C147.64 93.749 146.735 93.3963 145.999 92.691C145.294 91.9856 144.941 91.081 144.941 89.977C144.941 88.873 145.294 87.9836 145.999 87.309C146.735 86.6036 147.64 86.251 148.713 86.251C149.787 86.251 150.676 86.6036 151.381 87.309C152.117 88.0143 152.485 88.9036 152.485 89.977C152.485 91.081 152.117 91.9856 151.381 92.691C150.676 93.3963 149.787 93.749 148.713 93.749Z" fill="#FFE11B"/>
</svg>
